# xmcd CD database file
#
# Track frame offsets:
#	150
#	34537
#	58555
#	78555
#	108967
#	125467
#	147770
#	170587
#	188585
#	202550
#	215917
#
# Disc length: 3124 seconds
#
# Revision: 0
# Processed by: cddbd v1.5PL3 Copyright (c) Steve Scherf et al.
# Submitted via: CDex 1.50
#
DISCID=910c320b
DTITLE=Ryo Kawasaki - Here There And Everywhere
DYEAR=1900
DGENRE=Jazz
TTITLE0=When Sunny Gets Blue
TTITLE1=Here, There and Everywhere
TTITLE2=Wave
TTITLE3=Morning of the Carnival
TTITLE4=Braziliana
TTITLE5=A House is not a Home
TTITLE6=All in Love is Fair
TTITLE7=Spanish Dance #5
TTITLE8=Round About Midnight
TTITLE9=Someday My Prince Will Come
TTITLE10=The Blue Red Blues
EXTD=
EXTT0=
EXTT1=
EXTT2=
EXTT3=
EXTT4=
EXTT5=
EXTT6=
EXTT7=
EXTT8=
EXTT9=
EXTT10=
PLAYORDER=
